<?xml version="1.0" encoding="utf-8"?>
<!-- Generator: Adobe Illustrator 24.0.0, SVG Export Plug-In . SVG Version: 6.00 Build 0)  -->
<svg version="1.1" id="Layer_1" xmlns="http://www.w3.org/2000/svg" xmlns:xlink="http://www.w3.org/1999/xlink" x="0px" y="0px"
	 viewBox="0 0 853.2 853.2" style="enable-background:new 0 0 853.2 853.2;" xml:space="preserve">
<style type="text/css">
	.st0{fill:#1C274C;}
	.st1{opacity:0.7;fill:#FFFFFF;enable-background:new    ;}
	.st2{fill:none;stroke:#FFFFFF;stroke-width:50;stroke-miterlimit:133.33;}
	.st3{opacity:0.7;fill:none;stroke:#FFFFFF;stroke-width:50;stroke-miterlimit:133.33;enable-background:new    ;}
	.st4{fill:none;stroke:#FFFFFF;stroke-width:50;stroke-linecap:round;stroke-miterlimit:133.33;}
	
		.st5{opacity:0.7;fill:none;stroke:#FFFFFF;stroke-width:50;stroke-linecap:round;stroke-miterlimit:133.33;enable-background:new    ;}
	.st6{fill:#1C274C;stroke:#FFFFFF;stroke-width:11;stroke-miterlimit:10;}
</style>
<title>playwright-ai-inverse</title>
<g id="Layer_3">
	<rect x="-10.1" class="st0" width="863.3" height="853.2"/>
</g>
<g id="Layer_1_1_">
	<path class="st1" d="M403.5,303.2c-8,11.2-23.6,13.9-34.9,5.8c-11.2-8-13.9-23.6-5.8-34.9l0,0L403.5,303.2z M433.6,293.6
		c-12.6-3.4-24.4,1.6-30.1,9.6l-40.7-29c18.3-25.7,51.8-37.4,83.7-28.9L433.6,293.6z M449.5,304c-4-5.1-9.6-8.8-16-10.4l13-48.3
		c16.9,4.5,31.8,14.3,42.5,28.1L449.5,304z"/>
	<path class="st2" d="M592.2,491l-28.2-109.9c-14.7-57.3-22-86-41.2-100.4c-6.4-4.8-13.6-8.4-21.3-10.6
		c-22.8-6.5-48.7,5.7-100.5,29.9c-38.3,18-57.5,26.9-77.5,33.3c-6.9,2.2-14,4.2-21.1,5.9c-20.4,5-41.3,7.2-83.1,11.7
		c-56.5,6.1-84.7,9.1-101.3,26.6c-5.6,5.9-10.1,12.8-13.4,20.3c-9.7,22.5-2.4,51.1,12.3,108.4l28.2,109.9
		c33.1,129.2,143.2,169.9,217.2,182.4c22.6,3.8,33.9,5.8,68.1-3.8s43.1-17.2,60.8-32.3C549.4,713,625.4,620.2,592.2,491z"/>
	<path class="st3" d="M583.6,642.5c58-25,116-71.9,138.4-159.6L750.2,373c14.7-57.3,22-85.9,12.3-108.4c-3.2-7.5-7.8-14.4-13.4-20.3
		c-16.6-17.5-44.9-20.5-101.3-26.6c-41.8-4.5-62.7-6.7-83.1-11.7c-7.1-1.7-14.1-3.7-21.1-5.9c-20-6.4-39.2-15.3-77.6-33.3
		c-51.8-24.3-77.7-36.4-100.5-29.9c-7.7,2.2-14.9,5.8-21.3,10.6c-19.2,14.4-26.5,43.1-41.2,100.3l-23.3,91"/>
	<path class="st4" d="M208.9,511.7c2-20.6,17.4-39.2,39.7-45.1s44.9,2.4,56.9,19.3"/>
	<path class="st5" d="M673,366.3c-2-20.6-17.4-39.2-39.7-45.1s-44.9,2.4-56.9,19.3"/>
	<path class="st4" d="M402.1,459.9c2-20.6,17.4-39.2,39.7-45.1c22.3-6,44.9,2.4,56.9,19.2"/>
	<path class="st4" d="M303.4,640.5c0,0,34.2,25.4,93.7,9.4c59.6-16,76.5-55,76.5-55"/>
	<path class="st6" d="M733,674.7c4,0,6-2.3,6.7-6c11.4-53.6,10.7-55.6,66.6-67c4-0.7,6.4-3,6.4-6.7c0-4-2.3-6.4-6.4-7
		c-55.9-11.4-55.2-13.4-66.6-66.6c-0.7-3.7-2.7-6.4-6.7-6.4s-6,2.7-7,6.4c-11,53.2-10.4,55.2-66.6,66.6c-3.7,0.7-6.4,3-6.4,7
		c0,3.7,2.7,6,6.4,6.7c56.2,11.4,55.6,13.4,66.6,67C727,672.4,729,674.7,733,674.7z M673,220c4.7,0,7.4-3,8-7.4
		c11.7-63.6,12-67.6,79.3-79.4c4.3-0.7,7.7-3.7,7.7-8.4s-3.3-7.4-7.7-8.4c-67.3-11.4-67.6-15.4-79.3-79c-0.7-4.4-3.3-7.7-8-7.7
		s-7.7,3.3-8.4,7.7c-11.4,63.6-11.7,67.6-79,79c-4.7,1-7.7,3.7-7.7,8.4s3,7.7,7.7,8.4c67.3,11.7,67.6,15.7,79,79.4
		C665.3,217,668.3,220,673,220L673,220z M131.3,785c4.7,0,7.4-3.3,8-7.7c11.7-63.6,12-67.6,79.3-79c4.3-1,7.7-3.7,7.7-8.4
		s-3.3-7.7-7.7-8.4c-67.3-11.7-67.6-15.7-79.3-79.3c-0.7-4.3-3.3-7.4-8-7.4s-7.7,3-8.4,7.4c-11.7,63.6-11.7,67.6-79,79.3
		c-4.7,0.7-7.7,3.7-7.7,8.4s3,7.4,7.7,8.4c67.3,11.4,67.3,15.4,79,79C123.6,781.7,126.6,785,131.3,785L131.3,785z M176.6,371
		c6,0,10.4-4.4,11-10.7c11-89.4,15.4-91.7,106.1-106.5c7.4-1.3,11.8-4.7,11.8-11.3c0-6.4-4.4-10.4-10.4-11.4
		c-91.4-17.4-96.4-17.1-107.5-106.5c-0.7-6.4-5-10.7-11-10.7c-6.4,0-10.7,4.4-11.4,10.4c-11.8,90.7-15.1,93.7-107.5,106.8
		c-6,0.7-10.4,5-10.4,11.4s4.3,10,10.4,11.4c92.4,17.7,95.4,17.7,107.5,107.1C165.8,366.9,170.8,371.3,176.6,371L176.6,371z"/>
</g>
</svg>
